# xmcd
#
# Track frame offsets:
#	182
#	14312
#	28577
#	42337
#	56195
#	70132
#	81817
#	92975
#	105890
#	117660
#	129765
#	143707
#	155340
#	169740
#	184437
#	197052
#	210860
#	222795
#	234047
#	246157
#	257952
#	270120
#	282835
#	296472
#	307792
#	319960
#
# Disc length: 4433 seconds
#
# Revision: 1
# Processed by: cddbd v1.5PL3 Copyright (c) Steve Scherf et al.
# Submitted via: audiograbber 1.80
#
DISCID=68114f1a
DTITLE=Johnny Otis - Rhythm and Blues Caravan the Complete Savoy Recordings CD1
DYEAR=1900
DGENRE=
TTITLE0=Harlem Nocturne
TTITLE1=Jimmy's Round The Clock
TTITLE2=My Baby's Business
TTITLE3=Preston Love's Mansion
TTITLE4=Midnight In The Barrelhouse
TTITLE5=Boogie Guitar
TTITLE6=Ain't Nothin Shakin
TTITLE7=Hangover Blues
TTITLE8=Get Together Blues
TTITLE9=I'm Not Falling In Love With You
TTITLE10=If It's So Baby
TTITLE11=Our Romance Is Gone
TTITLE12=If I Didn't Love You So
TTITLE13=Rain In My Eyes
TTITLE14=Double Crossing Blues
TTITLE15=Headhunter
TTITLE16=Going To See My Baby
TTITLE17=The Little Red Hen
TTITLE18=New Orleans Shuffle
TTITLE19=The Turkey Hop, Part 1
TTITLE20=The Turkey Hop, Part 2
TTITLE21=Blues Nocturne
TTITLE22=Cry Baby
TTITLE23=Lover's Lane Boogie
TTITLE24=I Found Out My Troubles
TTITLE25=Misery
EXTD=
EXTT0=
EXTT1=
EXTT2=
EXTT3=
EXTT4=
EXTT5=
EXTT6=
EXTT7=
EXTT8=
EXTT9=
EXTT10=
EXTT11=
EXTT12=
EXTT13=
EXTT14=
EXTT15=
EXTT16=
EXTT17=
EXTT18=
EXTT19=
EXTT20=
EXTT21=
EXTT22=
EXTT23=
EXTT24=
EXTT25=
PLAYORDER=
